<svg version="1.1" id="Laag_1" xmlns="http://www.w3.org/2000/svg" xmlns:xlink="http://www.w3.org/1999/xlink" x="0px" y="0px" viewBox="0 0 150 150" enable-background="new 0 0 150 150" xml:space="preserve">
<g>
	<path fill="#EC671A" d="M108.9,122.2c-7.4,0-13.4-6-13.4-13.4s6-13.4,13.4-13.4s13.4,6,13.4,13.4&#10;&#9;&#9;C122.2,116.2,116.2,122.2,108.9,122.2z M108.9,98.2c-5.9,0-10.7,4.8-10.7,10.7s4.8,10.7,10.7,10.7s10.7-4.8,10.7-10.7&#10;&#9;&#9;C119.6,103,114.8,98.2,108.9,98.2z"/>
	<path fill="#EC671A" d="M115.9,117.9c-1-3.9-4.9-6.2-8.8-5.2c-2.6,0.7-4.6,2.7-5.2,5.2l-2.6-0.7c1.3-5.3,6.7-8.5,12-7.2&#10;&#9;&#9;c3.5,0.9,6.3,3.6,7.2,7.2L115.9,117.9z"/>
	<path fill="#EC671A" d="M108.9,110.9c-2.7,0-4.9-2.2-4.9-4.9c0-2.7,2.2-4.9,4.9-4.9c2.7,0,4.9,2.2,4.9,4.9c0,0,0,0,0,0&#10;&#9;&#9;C113.8,108.7,111.6,110.9,108.9,110.9L108.9,110.9z M108.9,103.8c-1.2,0-2.2,1-2.2,2.2c0,1.2,1,2.2,2.2,2.2c1.2,0,2.2-1,2.2-2.2&#10;&#9;&#9;c0,0,0,0,0,0C111.1,104.8,110.1,103.8,108.9,103.8z"/>
	<path fill="#EC671A" d="M41.1,54.5c-7.4,0-13.4-6-13.4-13.4s6-13.4,13.4-13.4s13.4,6,13.4,13.4C54.5,48.5,48.5,54.5,41.1,54.5z&#10;&#9;&#9; M41.1,30.4c-5.9,0-10.7,4.8-10.7,10.7s4.8,10.7,10.7,10.7S51.8,47,51.8,41.1C51.8,35.2,47,30.4,41.1,30.4z"/>
	<path fill="#EC671A" d="M48.1,50.2c-1-3.9-4.9-6.2-8.8-5.2c-2.6,0.7-4.6,2.7-5.2,5.2l-2.6-0.7c1.3-5.3,6.7-8.5,12-7.2&#10;&#9;&#9;c3.5,0.9,6.3,3.6,7.2,7.2L48.1,50.2z"/>
	<path fill="#EC671A" d="M41.1,43.2c-2.7,0-4.9-2.2-4.9-4.9s2.2-4.9,4.9-4.9s4.9,2.2,4.9,4.9C46,41,43.8,43.2,41.1,43.2z M41.1,36.1&#10;&#9;&#9;c-1.2,0-2.2,1-2.2,2.2c0,1.2,1,2.2,2.2,2.2s2.2-1,2.2-2.2c0,0,0,0,0,0C43.4,37.1,42.4,36.1,41.1,36.1z"/>
	<path fill="#EC671A" d="M41.1,122.2c-7.4,0-13.4-6-13.4-13.4s6-13.4,13.4-13.4s13.4,6,13.4,13.4C54.5,116.2,48.5,122.2,41.1,122.2z&#10;&#9;&#9; M41.1,98.2c-5.9,0-10.7,4.8-10.7,10.7s4.8,10.7,10.7,10.7s10.7-4.8,10.7-10.7C51.8,103,47,98.2,41.1,98.2z"/>
	<path fill="#EC671A" d="M34.1,117.9l-2.6-0.7c1.3-5.3,6.7-8.5,12-7.2c3.5,0.9,6.3,3.6,7.2,7.2l-2.6,0.7c-1-3.9-4.9-6.2-8.8-5.2&#10;&#9;&#9;C36.8,113.3,34.8,115.3,34.1,117.9L34.1,117.9z"/>
	<path fill="#EC671A" d="M41.1,110.9c-2.7,0-4.9-2.2-4.9-4.9c0-2.7,2.2-4.9,4.9-4.9s4.9,2.2,4.9,4.9C46,108.7,43.8,110.9,41.1,110.9&#10;&#9;&#9;z M41.1,103.8c-1.2,0-2.2,1-2.2,2.2s1,2.2,2.2,2.2s2.2-1,2.2-2.2c0,0,0,0,0,0C43.4,104.8,42.4,103.8,41.1,103.8z"/>
	<path fill="#EC671A" d="M108.9,54.5c-7.4,0-13.4-6-13.4-13.4s6-13.4,13.4-13.4s13.4,6,13.4,13.4C122.2,48.5,116.2,54.5,108.9,54.5z&#10;&#9;&#9; M108.9,30.4c-5.9,0-10.7,4.8-10.7,10.7s4.8,10.7,10.7,10.7s10.7-4.8,10.7-10.7C119.6,35.2,114.8,30.4,108.9,30.4z"/>
	<path fill="#EC671A" d="M101.9,50.2l-2.6-0.7c1.3-5.3,6.7-8.5,12-7.2c3.5,0.9,6.3,3.6,7.2,7.2l-2.6,0.7c-1-3.9-4.9-6.2-8.8-5.2&#10;&#9;&#9;C104.5,45.6,102.5,47.6,101.9,50.2L101.9,50.2z"/>
	<path fill="#EC671A" d="M108.9,43.2c-2.7,0-4.9-2.2-4.9-4.9c0-2.7,2.2-4.9,4.9-4.9s4.9,2.2,4.9,4.9c0,0,0,0,0,0&#10;&#9;&#9;C113.8,41,111.6,43.2,108.9,43.2L108.9,43.2z M108.9,36.1c-1.2,0-2.2,1-2.2,2.2c0,1.2,1,2.2,2.2,2.2c1.2,0,2.2-1,2.2-2.2&#10;&#9;&#9;c0,0,0,0,0,0C111.1,37.1,110.1,36.1,108.9,36.1z"/>
	<path fill="#EC671A" d="M75,101.1c-14.4,0-26.1-11.7-26.1-26.1S60.6,48.9,75,48.9s26.1,11.7,26.1,26.1&#10;&#9;&#9;C101.1,89.4,89.4,101.1,75,101.1z M75,51.6c-12.9,0-23.4,10.5-23.4,23.4S62.1,98.4,75,98.4S98.4,87.9,98.4,75&#10;&#9;&#9;C98.4,62.1,87.9,51.6,75,51.6z"/>
	<path fill="#EC671A" d="M75,101.1c-8,0-14.3-11.5-14.3-26.1S67,48.9,75,48.9S89.3,60.4,89.3,75S83,101.1,75,101.1z M75,51.6&#10;&#9;&#9;c-6.3,0-11.6,10.7-11.6,23.4S68.7,98.4,75,98.4S86.6,87.7,86.6,75S81.3,51.6,75,51.6z"/>
	<path fill="#EC671A" d="M73.7,50.3h2.7v49.5h-2.7V50.3z"/>
	<path fill="#EC671A" d="M54.1,60.3h41.7V63H54.1L54.1,60.3z"/>
	<path fill="#EC671A" d="M53.5,86h42.9v2.7H53.5V86z"/>
	<path fill="#EC671A" d="M50.3,73.7h49.5v2.7H50.3V73.7z"/>
	<path fill="#EC671A" d="M91.5,56.6l7.9-7.9l1.9,1.9l-7.9,7.9L91.5,56.6z"/>
	<path fill="#EC671A" d="M48.7,99.4l7.9-7.9l1.9,1.9l-7.9,7.9L48.7,99.4z"/>
	<path fill="#EC671A" d="M48.7,50.6l1.9-1.9l7.9,7.9l-1.9,1.9L48.7,50.6z"/>
	<path fill="#EC671A" d="M91.5,93.4l1.9-1.9l7.9,7.9l-1.9,1.9L91.5,93.4z"/>
</g>
</svg>