<svg version="1.1" id="Laag_1" xmlns="http://www.w3.org/2000/svg" xmlns:xlink="http://www.w3.org/1999/xlink" x="0px" y="0px" viewBox="0 0 150 150" enable-background="new 0 0 150 150" xml:space="preserve">
<g>
	<path fill="#EC671A" d="M117.2,31.2H32.8c-0.9,0-1.6,0.7-1.6,1.6v84.5c0,0.9,0.7,1.6,1.6,1.6h84.5c0.9,0,1.6-0.7,1.6-1.6V32.8&#10;&#9;&#9;C118.8,31.9,118.1,31.2,117.2,31.2z M115.6,52.2v63.4H34.4V52.2H115.6z M115.6,34.4V49H34.4V34.4H115.6z"/>
	<path fill="#EC671A" d="M108.3,46.1c2.4,0,4.4-2,4.4-4.4c0-2.4-2-4.4-4.4-4.4c-2.4,0-4.4,2-4.4,4.4c0,1.2,0.5,2.3,1.3,3.1&#10;&#9;&#9;C106,45.6,107.1,46.1,108.3,46.1z M107.1,41.7c0-0.6,0.5-1.1,1.1-1.1v-0.4l0,0.4c0.6,0,1.1,0.5,1.1,1.1c0,0.6-0.5,1.1-1.1,1.1&#10;&#9;&#9;C107.6,42.8,107.1,42.3,107.1,41.7z"/>
	<path fill="#EC671A" d="M96.3,46.1L96.3,46.1c2.4,0,4.4-2,4.4-4.4c0-2.4-2-4.4-4.4-4.4c-2.4,0-4.4,2-4.4,4.4c0,1.2,0.5,2.3,1.3,3.1&#10;&#9;&#9;C94,45.6,95.1,46.1,96.3,46.1z M95.1,41.7c0-0.6,0.5-1.1,1.1-1.1v-0.4l0,0.4c0.6,0,1.1,0.5,1.1,1.1c0,0.6-0.5,1.1-1.1,1.1&#10;&#9;&#9;C95.7,42.8,95.1,42.3,95.1,41.7z"/>
	<path fill="#EC671A" d="M84.3,46.1L84.3,46.1c2.4,0,4.4-2,4.4-4.4c0-2.4-2-4.4-4.4-4.4c-1.2,0-2.3,0.5-3.1,1.3&#10;&#9;&#9;c-0.8,0.8-1.3,1.9-1.3,3.1C79.9,44.1,81.9,46.1,84.3,46.1z M83.2,41.7c0-0.6,0.5-1.1,1.1-1.1v-0.4l0,0.4c0.6,0,1.1,0.5,1.1,1.1&#10;&#9;&#9;c0,0.6-0.5,1.1-1.1,1.1c-0.3,0-0.6-0.1-0.8-0.3C83.3,42.3,83.2,42,83.2,41.7z"/>
	<path fill="#EC671A" d="M38.7,43.3H76c0.9,0,1.6-0.7,1.6-1.6s-0.7-1.6-1.6-1.6H38.7c-0.9,0-1.6,0.7-1.6,1.6S37.8,43.3,38.7,43.3z"/>
	<path fill="#EC671A" d="M109,93.8c0.3-0.2,0.6-0.6,0.7-0.9c0.1-0.4,0-0.9-0.2-1.2c-0.2-0.4-0.6-0.6-1-0.7l-21.7-5.6&#10;&#9;&#9;c-0.3-0.1-0.5-0.1-0.8,0c-0.4,0.1-0.8,0.4-1,0.7c-0.2,0.4-0.3,0.8-0.2,1.2l5.6,21.7c0.1,0.4,0.3,0.7,0.7,0.9&#10;&#9;&#9;c0.4,0.2,0.8,0.3,1.2,0.2c0.4-0.1,0.8-0.3,1-0.7l3.5-5.2l10.2,10.2c0.3,0.3,0.7,0.5,1.1,0.5c0.4,0,0.8-0.2,1.1-0.5l4.7-4.7&#10;&#9;&#9;c0.3-0.3,0.5-0.7,0.5-1.1s-0.2-0.8-0.5-1.1l-10.2-10.2L109,93.8z M100.4,95.6c-0.1,0.1-0.2,0.1-0.2,0.2c-0.3,0.3-0.5,0.7-0.5,1.1&#10;&#9;&#9;c0,0.4,0.2,0.8,0.5,1.1l10.5,10.5l-2.4,2.4l-10.5-10.5c-0.3-0.3-0.7-0.5-1.1-0.5c-0.1,0-0.1,0-0.2,0c-0.5,0-0.9,0.3-1.2,0.7&#10;&#9;&#9;l-2.6,3.8l-4-15.6l15.6,4L100.4,95.6z"/>
	<path fill="#EC671A" d="M80.3,86.1l-5.2-0.6c-0.9-0.1-1.7,0.5-1.8,1.4c-0.1,0.4,0.1,0.9,0.3,1.2c0.3,0.3,0.6,0.6,1.1,0.6l5.2,0.6&#10;&#9;&#9;c0.1,0,0.1,0,0.2,0c0.8,0,1.5-0.6,1.6-1.4c0.1-0.4-0.1-0.8-0.3-1.2C81.1,86.4,80.7,86.2,80.3,86.1z"/>
	<path fill="#EC671A" d="M79.9,78l-0.3,0.3v0L79.9,78c-0.7-0.7-1.7-0.6-2.3,0c-0.3,0.3-0.5,0.7-0.5,1.2c0,0.4,0.2,0.8,0.5,1.1&#10;&#9;&#9;l3.7,3.7c0.3,0.3,0.7,0.5,1.1,0.5c0.4,0,0.8-0.2,1.1-0.5c0.3-0.3,0.5-0.7,0.5-1.1s-0.2-0.8-0.5-1.1L79.9,78z"/>
	<path fill="#EC671A" d="M87.3,82.1L87.3,82.1c0.1,0,0.1,0,0.2,0c0.4-0.1,0.8-0.3,1.1-0.6c0.3-0.3,0.4-0.8,0.3-1.2l-0.6-5.2&#10;&#9;&#9;c-0.1-0.9-0.9-1.5-1.8-1.4c-0.9,0.1-1.5,0.9-1.4,1.8l0.6,5.2C85.8,81.5,86.5,82.1,87.3,82.1z"/>
	<path fill="#EC671A" d="M38.9,59.3h72.3c0.9,0,1.6-0.7,1.6-1.6c0-0.9-0.7-1.6-1.6-1.6H38.9c-0.9,0-1.6,0.7-1.6,1.6&#10;&#9;&#9;C37.3,58.6,38,59.3,38.9,59.3z"/>
	<path fill="#EC671A" d="M38.9,68.1h72.3c0.9,0,1.6-0.7,1.6-1.6s-0.7-1.6-1.6-1.6H38.9c-0.9,0-1.6,0.7-1.6,1.6S38,68.1,38.9,68.1z"/>
	<path fill="#EC671A" d="M38.9,76.9h37.9c0.9,0,1.6-0.7,1.6-1.6s-0.7-1.6-1.6-1.6H38.9c-0.9,0-1.6,0.7-1.6,1.6S38,76.9,38.9,76.9z"/>
</g>
</svg>