<svg version="1.1" id="Laag_1" xmlns="http://www.w3.org/2000/svg" xmlns:xlink="http://www.w3.org/1999/xlink" x="0px" y="0px" viewBox="0 0 150 150" enable-background="new 0 0 150 150" xml:space="preserve">
<g>
	<g>
		<g>
			<path fill="#EC671A" d="M124.5,63.3c0-0.1,0-0.2-0.1-0.3c0-0.1-0.1-0.2-0.1-0.3c0-0.1-0.1-0.2-0.2-0.3c-0.1-0.1-0.1-0.2-0.2-0.3&#10;&#9;&#9;&#9;&#9;c0,0,0-0.1-0.1-0.1L108,49.8V37.1c0-2.7-2.2-4.9-4.9-4.9H85.2L78,26.5c-1.8-1.4-4.2-1.4-6,0l-7.2,5.6H47c-2.7,0-4.9,2.2-4.9,4.9&#10;&#9;&#9;&#9;&#9;v12.8L26.1,62.1c0,0,0,0.1-0.1,0.1c-0.1,0.1-0.2,0.2-0.2,0.3c-0.1,0.1-0.1,0.2-0.2,0.3c0,0.1-0.1,0.2-0.1,0.3&#10;&#9;&#9;&#9;&#9;c0,0.1-0.1,0.2-0.1,0.3c0,0,0,0.1,0,0.1v56.1c0,1,0.3,2.1,1,2.9c0,0,0,0,0,0c0,0,0,0,0.1,0c0.9,1.2,2.4,1.9,3.9,1.9h89.1&#10;&#9;&#9;&#9;&#9;c1.5,0,3-0.7,3.9-2c0,0,0,0,0,0c0,0,0,0,0,0c0.6-0.8,1-1.9,1-2.9L124.5,63.3C124.5,63.4,124.5,63.4,124.5,63.3z M74,29.1&#10;&#9;&#9;&#9;&#9;c0.6-0.5,1.4-0.5,2,0l3.8,3h-9.6L74,29.1z M30.9,121.2L74,87.7c0.6-0.5,1.4-0.5,2,0l43.2,33.5H30.9z M121.2,118.6L78,85.1&#10;&#9;&#9;&#9;&#9;c-1.8-1.4-4.2-1.4-6,0l-43.2,33.5V66l27,21c0.7,0.6,1.8,0.4,2.3-0.3c0.6-0.7,0.4-1.8-0.3-2.3L30.4,63L42,54v12.7&#10;&#9;&#9;&#9;&#9;c0,0.9,0.7,1.6,1.6,1.6c0.9,0,1.6-0.7,1.6-1.6V37.1c0-0.9,0.7-1.6,1.6-1.6H103c0.9,0,1.6,0.7,1.6,1.6v29.7c0,0.9,0.7,1.6,1.6,1.6&#10;&#9;&#9;&#9;&#9;c0.9,0,1.6-0.7,1.6-1.6V54l11.6,9L92.1,84.4c-0.5,0.4-0.7,0.9-0.6,1.5c0.1,0.6,0.5,1.1,1,1.3c0.6,0.2,1.2,0.1,1.6-0.2l27.1-21&#10;&#9;&#9;&#9;&#9;L121.2,118.6L121.2,118.6z"/>
			<path fill="#EC671A" d="M94.8,65.1v-6.6c0-10.9-8.9-19.8-19.8-19.8s-19.8,8.9-19.8,19.8S64.1,78.3,75,78.3c0.9,0,1.6-0.7,1.6-1.6&#10;&#9;&#9;&#9;&#9;c0-0.9-0.7-1.6-1.6-1.6c-9.1,0-16.5-7.4-16.5-16.5S65.9,42,75,42s16.5,7.4,16.5,16.5v6.6c0,1.8-1.5,3.3-3.3,3.3&#10;&#9;&#9;&#9;&#9;c-1.8,0-3.3-1.5-3.3-3.3v-6.6c0-0.9-0.7-1.6-1.6-1.6c-0.9,0-1.6,0.7-1.6,1.6c0,3.6-3,6.6-6.6,6.6c-3.6,0-6.6-3-6.6-6.6&#10;&#9;&#9;&#9;&#9;s3-6.6,6.6-6.6c0.9,0,1.6-0.7,1.6-1.6c0-0.9-0.7-1.6-1.6-1.6c-4.4,0-8.3,2.9-9.5,7.2c-1.2,4.3,0.6,8.8,4.3,11.1&#10;&#9;&#9;&#9;&#9;c3.8,2.3,8.6,1.9,11.9-1.1c0.4,3.5,3.4,6.1,6.9,5.9C92.1,71.5,94.8,68.6,94.8,65.1z"/>
		</g>
	</g>
</g>
</svg>