<svg version="1.1" id="Laag_1" xmlns="http://www.w3.org/2000/svg" xmlns:xlink="http://www.w3.org/1999/xlink" x="0px" y="0px" viewBox="0 0 150 150" enable-background="new 0 0 150 150" xml:space="preserve">
<g>
	<path fill="#EC671A" d="M79.2,37.8c-0.1,0-0.3,0-0.4,0c-0.1,0-0.2-0.1-0.4-0.1c-0.1,0-0.2-0.1-0.3-0.2c-0.1-0.1-0.2-0.2-0.3-0.2&#10;&#9;&#9;c-0.1-0.1-0.2-0.2-0.2-0.3c-0.1-0.1-0.1-0.2-0.2-0.3c0-0.1-0.1-0.2-0.1-0.4c0-0.1,0-0.3,0-0.4s0-0.3,0-0.4c0-0.1,0.1-0.2,0.1-0.4&#10;&#9;&#9;c0-0.1,0.1-0.2,0.2-0.3c0.1-0.1,0.2-0.2,0.2-0.3c0.1-0.1,0.2-0.2,0.3-0.2c0.1-0.1,0.2-0.1,0.3-0.2c0.1,0,0.2-0.1,0.4-0.1&#10;&#9;&#9;c0.2,0,0.5,0,0.8,0c0.1,0,0.2,0.1,0.4,0.1c0.1,0,0.2,0.1,0.3,0.2c0.1,0.1,0.2,0.2,0.3,0.2c0.1,0.1,0.2,0.2,0.2,0.3&#10;&#9;&#9;c0.1,0.1,0.1,0.2,0.2,0.3c0,0.1,0.1,0.2,0.1,0.4c0,0.1,0,0.3,0,0.4s0,0.3,0,0.4c0,0.1-0.1,0.2-0.1,0.4c0,0.1-0.1,0.2-0.2,0.3&#10;&#9;&#9;c-0.1,0.1-0.2,0.2-0.2,0.3c-0.1,0.1-0.2,0.2-0.3,0.2c-0.1,0.1-0.2,0.1-0.3,0.2c-0.1,0-0.2,0.1-0.4,0.1&#10;&#9;&#9;C79.5,37.7,79.3,37.8,79.2,37.8z"/>
	<path fill="#EC671A" d="M63.6,119.8c-2.9,0-5.3-2.4-5.3-5.3c0-2.9,2.4-5.3,5.3-5.3c2.9,0,5.3,2.4,5.3,5.3&#10;&#9;&#9;C68.9,117.4,66.5,119.8,63.6,119.8z M63.6,113.1c-0.8,0-1.4,0.6-1.4,1.4c0,0.8,0.6,1.4,1.4,1.4c0.8,0,1.4-0.6,1.4-1.4&#10;&#9;&#9;C65.1,113.7,64.4,113.1,63.6,113.1z"/>
	<path fill="#EC671A" d="M109.3,41.8H91.6V31.5c0-3.3-2.7-6-6-6h-44c-3.3,0-6,2.7-6,6v87c0,3.3,2.7,6,6,6h44c3.3,0,6-2.7,6-6V85.1&#10;&#9;&#9;h17.7c2.8,0,5.1-2.3,5.1-5.1V46.9C114.4,44.1,112.1,41.8,109.3,41.8z M87.8,118.5c0,1.2-1,2.1-2.1,2.1h-44c-1.2,0-2.1-1-2.1-2.1&#10;&#9;&#9;v-10.1h48.3L87.8,118.5L87.8,118.5z M87.8,104.5H39.5V37.8h31.8c1.1,0,1.9-0.9,1.9-1.9c0-1.1-0.9-1.9-1.9-1.9H39.5v-2.4&#10;&#9;&#9;c0-1.2,1-2.1,2.1-2.1h44c1.2,0,2.1,1,2.1,2.1v10.3H70.7c-2.8,0-5.1,2.3-5.1,5.1v33.2c0,2.8,2.3,5.1,5.1,5.1h2.7v3.5&#10;&#9;&#9;c0,0.7,0.4,1.3,0.9,1.7c0.3,0.2,0.7,0.3,1,0.3c0.3,0,0.6-0.1,0.9-0.2l10.1-5.2h1.4L87.8,104.5L87.8,104.5z M110.5,80.1&#10;&#9;&#9;c0,0.7-0.5,1.2-1.2,1.2H85.9c-0.3,0-0.6,0.1-0.9,0.2l-7.7,4v-2.3c0-1.1-0.9-1.9-1.9-1.9h-4.6c-0.7,0-1.2-0.5-1.2-1.2V46.9&#10;&#9;&#9;c0-0.7,0.5-1.2,1.2-1.2h38.6c0.7,0,1.2,0.5,1.2,1.2V80.1z"/>
	<path fill="#EC671A" d="M51.2,75.5c-0.6,0-1.2-0.3-1.6-0.8c-2.2-3-3.4-6.6-3.4-10.4c0-3.8,1.2-7.4,3.4-10.4c0.6-0.9,1.8-1,2.7-0.4&#10;&#9;&#9;c0.9,0.6,1,1.8,0.4,2.7C51,58.6,50,61.4,50,64.3c0,2.9,0.9,5.7,2.7,8.1c0.6,0.9,0.4,2.1-0.4,2.7C52,75.4,51.6,75.5,51.2,75.5z"/>
	<path fill="#EC671A" d="M57.8,71.7c-0.6,0-1.2-0.3-1.6-0.8c-1.4-1.9-2.1-4.2-2.1-6.6c0-2.4,0.7-4.6,2.1-6.6&#10;&#9;&#9;c0.6-0.9,1.8-1.1,2.7-0.4c0.9,0.6,1.1,1.8,0.4,2.7c-0.9,1.3-1.4,2.8-1.4,4.3c0,1.6,0.5,3,1.4,4.3c0.6,0.9,0.4,2.1-0.4,2.7&#10;&#9;&#9;C58.6,71.6,58.2,71.7,57.8,71.7z"/>
	<path fill="#EC671A" d="M97.8,78.9c-0.2,0-0.3,0-0.5,0c-0.7,0-7.3-0.5-14-9.7c-3.8-5.2-7-10.8-4.9-16.4c1.2-3.2,3.3-4.6,3.9-5&#10;&#9;&#9;c0.8-0.6,1.8-0.8,2.9-0.7c1.1,0.1,2,0.7,2.6,1.6l3.3,4.5c1.3,1.8,0.9,4.3-0.9,5.6l-1.1,0.8c0.4,1.1,1,2.4,2.1,3.9&#10;&#9;&#9;c1.1,1.4,2.1,2.4,3.1,3.2l1.1-0.8c1.8-1.3,4.3-0.9,5.6,0.8l3.3,4.5c0,0,0,0,0,0c1.2,1.7,0.9,4-0.8,5.5&#10;&#9;&#9;C102.5,77.6,101,78.9,97.8,78.9z M84.2,51.2c-0.2,0.1-1.4,0.9-2.2,3c-1.2,3.2,0.1,6.9,4.4,12.8c5.6,7.7,11,8.1,11,8.1&#10;&#9;&#9;c2,0.1,2.6-0.5,3.4-1.2c0.1-0.1,0.2-0.3,0.2-0.3L97.8,69c0,0-0.1,0-0.2,0l-1.9,1.4c-0.9,0.7-2.2,0.7-3.1,0&#10;&#9;&#9;c-1.2-0.9-2.9-2.3-4.6-4.6c-1.7-2.3-2.4-4.4-3-5.8c-0.3-0.8-0.2-2,0.7-2.8c0,0,0,0,0.1-0.1l2-1.5c0.1-0.1,0.1-0.2,0.1-0.2L84.6,51&#10;&#9;&#9;c0,0,0,0,0,0c0,0-0.1,0-0.2,0C84.4,51.1,84.3,51.1,84.2,51.2z M101.1,73.6L101.1,73.6L101.1,73.6z M95,67.3&#10;&#9;&#9;C95,67.3,95,67.3,95,67.3C95,67.3,95,67.3,95,67.3z"/>
</g>
</svg>